<?xml version="1.0" standalone="no"?><!DOCTYPE svg PUBLIC "-//W3C//DTD SVG 1.1//EN" "http://www.w3.org/Graphics/SVG/1.1/DTD/svg11.dtd"><svg class="icon" width="200px" height="200.00px" viewBox="0 0 1024 1024" version="1.1" xmlns="http://www.w3.org/2000/svg"><path fill="#333333" d="M640.992 928.288h-256v-288a63.965 63.965 0 0 1 18.752-45.248 64.02 64.02 0 0 1 45.248-18.752h128a64.02 64.02 0 0 1 45.248 18.752c12 12 18.752 28.256 18.752 45.248v288z m330.272-450.496L559.232 82.464c-25.6-24.576-67.04-24.64-92.736 0L54.464 477.792c-38.24 36.704-26.56 66.496 26.72 66.496h82.112L191.2 928.64c2.752 35.008 33.76 63.648 69.248 63.648h505.12c35.36 0 66.464-28.48 69.248-63.648l27.872-384.352h81.856c53.024 0 26.72-66.496 26.72-66.496z"  /></svg>